PathFileType	4	(X/Y/Z)	C:/Users/opensim2020/Desktop/walking_exp_matlab/subject03_walking10_straight_02.trc	
DataRate	CameraRate	NumFrames	NumMarkers	Units	OrigDataRate	OrigDataStartFrame	OrigNumFrames	
100.00	100.00	5	45	mm	100.00	2118	347	
Frame#	Time	LFHD			RFHD			LBHD			RBHD			C7			T10			CLAV			STRN			RBAK			LSHO			LUPA			LELB			LFRM			LWRA			LWRB			LFIN			RSHO			RUPA			RELB			RFRM			RWRA			RWRB			RFIN			LASI			RASI			LPSI			RPSI			LTHI			LKNE			LTIB			LANK			LHEE			LTOE			RTHI			RKNE			RTIB			RANK			RHEE			RTOE			*39			*40			*41			*42			*43			*44			
		X1	Y1	Z1	X2	Y2	Z2	X3	Y3	Z3	X4	Y4	Z4	X5	Y5	Z5	X6	Y6	Z6	X7	Y7	Z7	X8	Y8	Z8	X9	Y9	Z9	X10	Y10	Z10	X11	Y11	Z11	X12	Y12	Z12	X13	Y13	Z13	X14	Y14	Z14	X15	Y15	Z15	X16	Y16	Z16	X17	Y17	Z17	X18	Y18	Z18	X19	Y19	Z19	X20	Y20	Z20	X21	Y21	Z21	X22	Y22	Z22	X23	Y23	Z23	X24	Y24	Z24	X25	Y25	Z25	X26	Y26	Z26	X27	Y27	Z27	X28	Y28	Z28	X29	Y29	Z29	X30	Y30	Z30	X31	Y31	Z31	X32	Y32	Z32	X33	Y33	Z33	X34	Y34	Z34	X35	Y35	Z35	X36	Y36	Z36	X37	Y37	Z37	X38	Y38	Z38	X39	Y39	Z39	X40	Y40	Z40	X41	Y41	Z41	X42	Y42	Z42	X43	Y43	Z43	X44	Y44	Z44	X45	Y45	Z45	

304	3.030	-964.24310	-968.09448	1610.67224	-1097.18567	-973.76068	1614.45142	-976.28882	-847.60211	1548.22717	-1106.24048	-859.15826	1552.92969	-1037.90576	-832.79919	1400.84167	-1035.50403	-795.60834	1088.79895	-1024.41699	-954.06458	1324.58228	-1015.96631	-992.77130	1158.08923	-1140.99915	-789.71173	1228.42078	-873.95123	-891.90326	1361.37439	-806.62671	-859.36011	1164.57385	-793.98370	-855.53259	1041.06897	-790.01691	-885.83990	914.54602	-817.32153	-919.07831	800.02722	-774.23907	-883.00391	800.81903	-782.05908	-907.67096	719.54498	-1187.80176	-929.90204	1347.70471	-1257.22253	-976.63116	1131.89844	-1265.22339	-1019.86163	1027.32739	-1259.47974	-1071.52380	900.46191	-1214.58545	-1117.34497	816.66309	-1263.95886	-1098.48987	803.89337	-1247.73132	-1139.20288	743.24023	-913.48059	-957.70892	917.28162	-1151.94226	-965.77045	928.53723	-967.82452	-797.15521	940.11493	-1116.12927	-804.56061	961.37555	-871.07141	-960.53253	616.18781	-914.28918	-1040.65076	459.47830	-914.71594	-1062.94604	271.99353	-943.49500	-1139.38733	73.45453	-989.42932	-1122.75745	30.08470	-931.00446	-1291.52515	82.33485	-1189.94177	-878.79742	638.54620	-1151.12927	-858.17511	459.23447	-1149.76782	-771.34796	285.34244	-1093.54651	-696.90460	82.04707	-1042.87378	-646.61908	59.85100	-1071.69446	-831.95752	28.93586	-1020.39160	-880.92511	1657.93237															 
305	3.040	-963.11017	-974.35248	1610.15735	-1096.07349	-979.88422	1614.04529	-975.05890	-853.97662	1547.47144	-1105.09070	-865.41559	1552.33374	-1036.41846	-839.41833	1400.18848	-1033.62976	-802.75647	1087.98914	-1023.56842	-960.92755	1324.08484	-1015.47552	-999.85052	1157.60510	-1139.48242	-795.86005	1227.77979	-872.81549	-899.43384	1360.74536	-805.94995	-867.32379	1163.54565	-793.84296	-863.57092	1040.00916	-790.57843	-892.74207	913.07458	-818.66077	-924.58844	798.26654	-774.98785	-888.96826	799.35895	-783.83435	-912.41370	717.66296	-1186.85974	-935.71448	1347.11023	-1256.23535	-982.25958	1131.29883	-1264.02637	-1025.25854	1026.53113	-1258.26599	-1076.78210	899.62439	-1213.32007	-1122.53577	815.71454	-1262.63916	-1103.63171	803.01947	-1246.39514	-1144.32776	742.35858	-913.22516	-965.41113	916.35919	-1151.71204	-971.80865	927.94922	-966.25330	-804.58270	939.59833	-1114.61426	-810.88086	960.91394	-871.88129	-967.64032	615.20740	-915.09583	-1047.00818	458.30768	-915.34637	-1069.93945	271.24872	-944.37958	-1146.67944	72.83592	-990.69855	-1130.01331	29.57796	-931.30823	-1298.51416	81.43953	-1189.33582	-883.31824	638.05383	-1151.31323	-862.15417	458.93021	-1149.88440	-773.70612	285.72852	-1093.70068	-697.47223	82.95590	-1042.94751	-647.04352	61.23845	-1071.88245	-832.08844	28.85289	-1019.48816	-886.82233	1657.50781															 
306	3.050	-961.87134	-980.72937	1609.76160	-1094.85950	-986.01514	1613.70044	-973.79584	-860.46899	1546.74744	-1103.86255	-871.66437	1551.77832	-1034.82568	-846.10321	1399.52881	-1032.29663	-809.71283	1087.40552	-1022.68658	-967.85352	1323.62378	-1014.95276	-1007.03729	1157.15430	-1137.58069	-802.29480	1227.12549	-871.50659	-907.15778	1360.04553	-805.15918	-875.40857	1162.59912	-793.58160	-871.59467	1038.86462	-791.06787	-899.84399	911.74493	-819.85596	-930.21942	796.59515	-775.88641	-895.09448	797.88617	-785.41443	-917.16510	715.77393	-1185.91064	-941.68732	1346.69958	-1255.12720	-987.75549	1130.65381	-1262.88916	-1030.50952	1025.78857	-1257.10535	-1081.83752	898.79370	-1212.12305	-1127.63086	814.89740	-1261.49512	-1108.45825	802.15869	-1245.11096	-1149.08228	741.37592	-913.01001	-973.25134	915.43219	-1151.47107	-977.95752	927.38873	-964.49414	-812.21307	939.04224	-1113.00879	-817.32941	960.45984	-872.35272	-975.05896	614.43707	-915.49500	-1053.98340	457.46823	-915.89050	-1076.28369	270.30240	-945.67572	-1152.11938	71.59952	-992.03644	-1135.34253	28.63347	-932.33075	-1304.09180	79.82434	-1189.05481	-887.86218	637.81207	-1151.48999	-866.15613	458.64636	-1149.95630	-776.09338	286.17123	-1093.78271	-698.05060	83.97785	-1042.90649	-647.51880	62.71742	-1072.02991	-832.20166	28.80379	-1018.15521	-892.98743	1656.89539															 
307	3.060	-960.70172	-987.01508	1609.28430	-1093.68005	-992.21130	1613.43433	-972.45514	-866.94287	1546.11890	-1102.51514	-877.98578	1551.26599	-1033.29785	-852.92352	1398.94263	-1030.37927	-817.15723	1086.71851	-1021.77625	-974.89276	1323.25024	-1014.42871	-1014.32098	1156.78027	-1135.74927	-808.71008	1226.56860	-870.22058	-914.92633	1359.43884	-804.26697	-883.76166	1161.76331	-793.26440	-879.59515	1037.86121	-791.42163	-907.06909	910.44873	-820.84283	-935.94238	795.03717	-776.25146	-901.41455	796.69470	-786.74304	-922.07623	714.10529	-1184.87720	-947.74878	1346.33459	-1254.00146	-993.18842	1130.05127	-1261.75635	-1035.68542	1025.04773	-1255.94177	-1086.69543	897.94110	-1210.99976	-1132.55591	814.05548	-1260.11401	-1113.10132	801.14655	-1244.01904	-1153.69812	740.46881	-912.65930	-981.58868	914.78943	-1151.25586	-984.25201	926.81647	-962.86987	-819.96613	938.75702	-1111.44531	-823.95392	960.04510	-872.44916	-982.91693	613.97717	-915.60706	-1061.37805	456.82001	-916.38861	-1081.96191	269.16171	-946.73907	-1156.28003	70.07954	-993.24847	-1139.06470	27.13543	-933.95227	-1308.27747	77.36626	-1188.69299	-892.58026	637.57806	-1151.62561	-870.26031	458.37979	-1150.01282	-778.49188	286.66412	-1093.77380	-698.68573	85.07822	-1042.91736	-648.00287	64.30057	-1072.16150	-832.38617	28.68491	-1016.49615	-899.32965	1656.31262															 
308	3.070	-959.51422	-993.33948	1608.95471	-1092.83899	-998.76312	1613.37390	-971.10492	-873.49310	1545.51477	-1101.11450	-884.31000	1550.79993	-1031.65369	-859.73456	1398.36743	-1028.97107	-824.45740	1086.24390	-1020.84644	-981.98840	1322.91394	-1013.86847	-1021.79242	1156.51624	-1133.95728	-815.22180	1226.05896	-868.83386	-922.90570	1358.86792	-803.35541	-892.23590	1160.98303	-793.16461	-888.27649	1036.85425	-791.69141	-914.44415	909.22949	-821.61853	-941.92444	793.59686	-776.82880	-907.84918	795.42499	-788.00043	-927.06903	712.45715	-1183.87012	-953.84283	1346.08362	-1252.87769	-998.62720	1129.49646	-1260.66687	-1040.73657	1024.34338	-1254.83728	-1091.42810	897.09247	-1209.92749	-1137.23267	813.17584	-1258.92896	-1117.50012	800.14032	-1242.85010	-1157.89612	739.34998	-912.49011	-989.85095	914.12158	-1151.00464	-990.63263	926.28796	-961.36871	-827.92261	938.52533	-1109.81787	-830.76733	959.62482	-872.16919	-991.33130	613.80322	-915.65656	-1068.09119	455.96509	-916.88702	-1087.03503	267.82178	-948.35156	-1159.03052	68.11134	-994.57019	-1141.06812	25.22912	-936.43787	-1311.06836	74.00924	-1188.34241	-897.32458	637.38428	-1151.70032	-874.45929	458.15686	-1150.00305	-780.94757	287.24118	-1094.00757	-699.16583	86.40089	-1042.82373	-648.61212	66.02923	-1072.29358	-832.50378	28.66145	-1015.46210	-905.34296	1655.93738															 
